<?xml version="1.0" encoding="UTF-8"?>
<svg id="Layer_1" xmlns="http://www.w3.org/2000/svg" version="1.1" viewBox="0 0 126 100">
  <!-- Generator: Adobe Illustrator 29.1.0, SVG Export Plug-In . SVG Version: 2.1.0 Build 142)  -->
  <defs>
    <style>
      .st0 {
        fill: #231f20;
      }

      .st1 {
        fill: #fff;
      }

      .st2 {
        fill: #929497;
      }

      .st3 {
        fill: #1a4d82;
      }
    </style>
  </defs>
  <g>
    <path class="st3" d="M-312.82,53.9h-7.16V15.05h7.16v6.34h5.51v-6.34h13.5v7.16h-12.67v6.34h-6.34v25.35Z"/>
    <path class="st3" d="M-259.49,53.9h-19.83v-6.34h-6.34v-26.17h6.34v-6.34h19.83v6.34h6.34v7.16h-7.16v-6.34h-18.19v24.52h18.19v-6.33h7.16v7.16h-6.34v6.34Z"/>
    <polygon class="st2" points="-245 25.38 -237.88 25.38 -237.88 44.7 -228.69 53.9 -223.63 53.9 -223.63 48.84 -230.76 41.71 -230.76 25.38 -223.63 25.38 -223.63 18.27 -230.76 18.27 -230.76 4.01 -237.88 4.01 -237.88 18.27 -245 18.27 -245 25.38 -245 25.38"/>
    <path class="st2" d="M-215.45,27.45v17.25l9.19,9.2h17.26l9.19-9.2v-17.25l-9.19-9.18h-17.26l-9.19,9.18h0ZM-203.27,25.38h11.26l5.07,5.06v11.26l-5.07,5.06h-11.26l-5.06-5.06v-11.26l5.06-5.06h0Z"/>
    <path class="st3" d="M-137.83.84c1.03,0,1.87.31,2.5.95.63.63.95,1.46.95,2.5v30.82c0,3.51-.82,6.7-2.47,9.56-1.65,2.86-3.88,5.11-6.69,6.76-2.82,1.65-5.96,2.47-9.43,2.47s-6.64-.82-9.5-2.47c-2.86-1.64-5.1-3.89-6.73-6.76-1.62-2.86-2.43-6.05-2.43-9.56s.75-6.7,2.26-9.57c1.51-2.86,3.58-5.1,6.22-6.73,2.63-1.62,5.58-2.43,8.82-2.43,2.61,0,5.05.54,7.3,1.62,2.25,1.08,4.17,2.59,5.75,4.53V4.28c0-1.04.33-1.87.98-2.5.65-.63,1.48-.95,2.47-.95h0ZM-152.97,47.81c2.25,0,4.29-.55,6.12-1.66,1.82-1.1,3.25-2.63,4.29-4.56,1.04-1.94,1.55-4.1,1.55-6.49s-.52-4.54-1.55-6.46c-1.04-1.92-2.47-3.42-4.29-4.53-1.82-1.1-3.86-1.65-6.12-1.65s-4.29.55-6.12,1.65c-1.82,1.1-3.26,2.61-4.32,4.53-1.06,1.92-1.59,4.07-1.59,6.46s.53,4.55,1.59,6.49c1.06,1.94,2.5,3.46,4.32,4.56,1.83,1.1,3.87,1.66,6.12,1.66h0Z"/>
    <path class="st3" d="M-107.6,53.9c-3.56,0-6.76-.81-9.6-2.43-2.84-1.62-5.06-3.86-6.66-6.72-1.6-2.86-2.4-6.05-2.4-9.57s.78-6.84,2.33-9.7c1.56-2.86,3.73-5.09,6.52-6.69,2.79-1.6,5.95-2.4,9.46-2.4,5.32,0,9.73,2.03,13.25,6.08.45.49.67,1.08.67,1.75,0,.99-.49,1.83-1.49,2.5-.45.31-.97.47-1.55.47-1.04,0-1.92-.41-2.64-1.22-1.13-1.22-2.35-2.11-3.69-2.67-1.33-.56-2.85-.84-4.56-.84-3.47,0-6.29,1.16-8.45,3.48-2.16,2.32-3.24,5.4-3.24,9.23,0,2.43.51,4.61,1.52,6.52,1.02,1.92,2.44,3.41,4.26,4.5,1.83,1.08,3.91,1.62,6.25,1.62,3.07,0,5.54-.79,7.44-2.37.85-.63,1.69-.95,2.5-.95.63,0,1.22.21,1.76.61.86.72,1.29,1.54,1.29,2.44,0,.67-.27,1.28-.81,1.82-3.24,3.02-7.3,4.53-12.17,4.53h0Z"/>
    <path class="st0" d="M-309.08,62.05v17.05h-10.98v-17.05h10.98ZM-318.45,76h1.55v-4.65h4.65v-1.55h-4.65v-3.11h6.21v-1.55h-7.76v10.85Z"/>
    <path class="st0" d="M-297.13,62.05v17.05h-10.98v-17.05h10.98ZM-306.49,76h1.55v-4.65h1.55v1.55h1.55v1.55h1.55v1.55h1.56v-1.55h-1.56v-1.55h-1.55v-1.55h1.55v-1.55h-4.65v-3.11h4.65v3.11h1.56v-3.11h-1.56v-1.55h-6.19v10.85Z"/>
    <path class="st0" d="M-285.18,62.05v17.05h-10.98v-17.05h10.98ZM-294.54,76h7.76v-10.85h-7.76v10.85ZM-288.35,66.69v7.76h-4.65v-7.76h4.65Z"/>
    <path class="st0" d="M-273.23,62.05v17.05h-10.98v-17.05h10.98ZM-282.59,76h1.55v-7.74h1.55v3.1h1.55v-3.1h-1.55v-1.56h-1.55v-1.55h-1.55v10.85ZM-277.94,68.26h1.55v7.74h1.56v-10.85h-1.56v1.55h-1.55v1.56Z"/>
    <path class="st0" d="M-249.32,62.05v17.05h-10.98v-17.05h10.98ZM-258.68,76h1.55v-4.65h1.55v1.55h1.55v1.55h1.55v1.55h1.56v-1.55h-1.56v-1.55h-1.55v-1.55h1.55v-1.55h-4.65v-3.11h4.65v3.11h1.56v-3.11h-1.56v-1.55h-6.19v10.85Z"/>
    <path class="st0" d="M-237.37,62.05v17.05h-10.98v-17.05h10.98ZM-243.63,66.69h1.55v1.56h1.55v3.1h-4.65v-3.1h-1.55v7.74h1.55v-3.1h4.65v3.1h1.56v-7.74h-1.56v-1.56h-1.55v-1.55h-1.55v1.55ZM-245.18,68.26h1.55v-1.56h-1.55v1.56Z"/>
    <path class="st0" d="M-225.42,62.05v17.05h-10.98v-17.05h10.98ZM-234.78,76h1.55v-1.55h1.55v-1.55h-1.55v-7.76h-1.55v10.85ZM-228.58,72.9h-1.55v-3.1h-1.55v3.1h1.55v1.55h1.55v1.55h1.56v-10.85h-1.56v7.76Z"/>
    <path class="st0" d="M-201.51,62.05v17.05h-10.98v-17.05h10.98ZM-210.87,74.45h1.55v1.55h4.64v-1.55h-4.64v-7.76h-1.55v7.76ZM-209.32,66.69h4.64v1.56h1.56v-1.56h-1.56v-1.55h-4.64v1.55ZM-204.68,74.45h1.56v-1.55h-1.56v1.55Z"/>
    <path class="st0" d="M-189.56,62.05v17.05h-10.98v-17.05h10.98ZM-198.92,76h7.76v-10.85h-7.76v10.85ZM-192.72,66.69v7.76h-4.65v-7.76h4.65Z"/>
    <path class="st0" d="M-177.61,62.05v17.05h-10.98v-17.05h10.98ZM-186.97,76h7.76v-1.55h-6.21v-9.31h-1.55v10.85Z"/>
    <path class="st0" d="M-165.65,62.05v17.05h-10.98v-17.05h10.98ZM-175.01,76h7.76v-1.55h-6.21v-9.31h-1.55v10.85Z"/>
    <path class="st0" d="M-153.7,62.05v17.05h-10.98v-17.05h10.98ZM-163.06,76h7.76v-1.55h-6.21v-3.1h4.65v-1.55h-4.65v-3.11h6.21v-1.55h-7.76v10.85Z"/>
    <path class="st0" d="M-141.75,62.05v17.05h-10.98v-17.05h10.98ZM-151.11,74.45h1.55v1.55h4.65v-1.55h-4.65v-7.76h-1.55v7.76ZM-149.56,66.69h4.65v1.56h1.56v-1.56h-1.56v-1.55h-4.65v1.55ZM-144.91,74.45h1.56v-1.55h-1.56v1.55Z"/>
    <path class="st0" d="M-129.79,62.05v17.05h-10.98v-17.05h10.98ZM-139.15,66.69h3.1v9.31h1.55v-9.31h3.11v-1.55h-7.76v1.55Z"/>
    <path class="st0" d="M-117.84,62.05v17.05h-10.98v-17.05h10.98ZM-125.65,66.69h1.55v7.76h-1.55v1.55h4.65v-1.55h-1.55v-7.76h1.55v-1.55h-4.65v1.55Z"/>
    <path class="st0" d="M-105.89,62.05v17.05h-10.98v-17.05h10.98ZM-115.25,76h7.76v-10.85h-7.76v10.85ZM-109.06,66.69v7.76h-4.65v-7.76h4.65Z"/>
    <path class="st0" d="M-93.94,62.05v17.05h-10.98v-17.05h10.98ZM-103.3,76h1.55v-7.74h1.55v1.55h1.55v1.55h1.55v4.65h1.56v-10.85h-1.56v4.66h-1.55v-1.55h-1.55v-1.56h-1.55v-1.55h-1.55v10.85Z"/>
    <path class="st0" d="M-310.66,87.44v1.16h-3.4v10.38h-1.31v-10.38h-3.27v-1.16h7.97Z"/>
    <path class="st0" d="M-300.41,96.92c-.76,1.53-2.08,2.23-3.33,2.23-1.76,0-4.15-1.42-4.15-5.95s2.42-5.87,4.14-5.87c1.25,0,2.56.69,3.32,2.17.63,1.23.71,2.66.71,3.74,0,1.01-.07,2.44-.69,3.68ZM-306.61,93.03c0,3.66,1.59,4.86,2.88,4.86.77,0,1.67-.44,2.2-1.56.47-.99.52-2.17.52-2.92,0-.97-.06-2.08-.45-3.04-.54-1.34-1.52-1.82-2.34-1.82-1.21,0-2.81,1.05-2.81,4.49Z"/>
    <path class="st0" d="M-283.2,87.46c1.02,0,1.84.07,2.68.62,1.48.96,2.14,2.9,2.14,5.12,0,2.52-.9,4.48-2.55,5.33-.81.42-1.58.46-2.49.46h-2.47v-11.53h2.7ZM-284.67,97.97h1.18c.72,0,1.43-.03,2.15-.52.92-.62,1.65-1.89,1.65-4.08,0-1.65-.36-3.29-1.43-4.18-.71-.59-1.44-.63-2.17-.63h-1.39v9.41Z"/>
    <path class="st0" d="M-268.78,87.46v1.09h-2.28v9.38h2.39v1.07h-5.95v-1.08h2.26v-9.36h-2.14v-1.09h5.71Z"/>
    <path class="st0" d="M-256.88,89.28l-.91.92c-.15-.09-.19-.24-.25-.36-.35-.77-1.17-1.36-2.2-1.36-.97,0-2,.53-2.59,1.65-.45.85-.58,1.88-.58,2.95,0,1.22.13,2.83,1.09,3.93.63.71,1.45,1.01,2.19,1.01.69,0,1.43-.24,2.07-.7v-2.74h-2.09v-1.12h3.28v4.5c-1.09.8-2.32,1.2-3.38,1.2-2.01,0-4.45-1.44-4.45-5.79,0-5.05,2.93-6.01,4.46-6.01,1.42,0,2.69.74,3.35,1.93Z"/>
    <path class="st0" d="M-247.24,87.46v1.09h-2.28v9.38h2.39v1.07h-5.95v-1.08h2.27v-9.36h-2.14v-1.09h5.71Z"/>
    <path class="st0" d="M-235.25,87.44v1.16h-3.4v10.38h-1.31v-10.38h-3.27v-1.16h7.97Z"/>
    <path class="st0" d="M-228.69,87.25h.14l4.45,11.72h-1.34l-1.28-3.37h-3.65l-1.12,3.38h-1.27l4.07-11.73ZM-228.62,90.22l-1.49,4.39h3.11l-1.63-4.39Z"/>
    <path class="st0" d="M-219.53,87.46c.02.13-.04.24-.06.29-.06.1-.09.16-.09.33v9.79h5.55v1.12h-6.89v-11.53h1.5Z"/>
    <path class="st0" d="M-192.05,89.64l-1.23.61c-.09-.06-.09-.16-.09-.18,0-.04,0-.09,0-.14,0-.08-.03-.13-.06-.2-.46-.8-1.3-1.34-2.2-1.34-1.63,0-3.08,1.71-3.08,4.77s1.49,4.88,3.18,4.88c.9,0,1.82-.52,2.35-1.4l.95.62c-.72,1.18-2,1.9-3.38,1.9-1.9,0-4.37-1.43-4.37-5.88s2.59-5.92,4.38-5.92c1.53,0,2.91.89,3.53,2.28Z"/>
    <path class="st0" d="M-181.92,96.92c-.76,1.53-2.08,2.23-3.33,2.23-1.76,0-4.15-1.42-4.15-5.95s2.42-5.87,4.14-5.87c1.25,0,2.56.69,3.32,2.17.63,1.23.7,2.66.7,3.74,0,1.01-.08,2.44-.69,3.68ZM-188.12,93.03c0,3.66,1.59,4.86,2.88,4.86.78,0,1.67-.44,2.2-1.56.47-.99.52-2.17.52-2.92,0-.97-.06-2.08-.45-3.04-.54-1.34-1.52-1.82-2.34-1.82-1.21,0-2.81,1.05-2.81,4.49Z"/>
    <path class="st0" d="M-176.44,87.46c.02.13-.04.24-.06.29-.06.1-.09.16-.09.33v9.79h5.55v1.12h-6.89v-11.53h1.5Z"/>
    <path class="st0" d="M-165.67,87.46c.02.13-.04.24-.07.29-.05.1-.09.16-.09.33v9.79h5.55v1.12h-6.89v-11.53h1.5Z"/>
    <path class="st0" d="M-149.47,87.44v1.15h-5.84v3.78h4.82v1.18h-4.82v4.27h5.79v1.15h-7.02v-11.53h7.06Z"/>
    <path class="st0" d="M-138.19,89.64l-1.23.61c-.09-.06-.09-.16-.09-.18,0-.04,0-.09,0-.14,0-.08-.03-.13-.06-.2-.46-.8-1.3-1.34-2.2-1.34-1.63,0-3.08,1.71-3.08,4.77s1.49,4.88,3.18,4.88c.91,0,1.82-.52,2.35-1.4l.95.62c-.72,1.18-2,1.9-3.38,1.9-1.9,0-4.37-1.43-4.37-5.88s2.59-5.92,4.38-5.92c1.53,0,2.91.89,3.53,2.28Z"/>
    <path class="st0" d="M-127.53,87.44v1.16h-3.4v10.38h-1.31v-10.38h-3.27v-1.16h7.97Z"/>
    <path class="st0" d="M-117.97,87.46v1.09h-2.28v9.38h2.39v1.07h-5.95v-1.08h2.26v-9.36h-2.13v-1.09h5.71Z"/>
    <path class="st0" d="M-106.51,96.92c-.76,1.53-2.08,2.23-3.33,2.23-1.76,0-4.15-1.42-4.15-5.95s2.42-5.87,4.14-5.87c1.25,0,2.56.69,3.32,2.17.63,1.23.71,2.66.71,3.74,0,1.01-.08,2.44-.69,3.68ZM-112.72,93.03c0,3.66,1.59,4.86,2.88,4.86.77,0,1.67-.44,2.2-1.56.47-.99.52-2.17.52-2.92,0-.97-.06-2.08-.45-3.04-.54-1.34-1.52-1.82-2.34-1.82-1.21,0-2.81,1.05-2.81,4.49Z"/>
    <path class="st0" d="M-102.84,87.46h1.26l4.83,8.53v-8.55h1.37c.02.11-.03.2-.05.24-.04.08-.08.13-.08.26v11.05h-1.02l-5.07-9.07v9.06h-1.24v-11.52Z"/>
  </g>
  <rect x="35.51" y="56.72" width="4.98" height="8.11"/>
  <rect x="41.83" y="56.72" width="4.98" height="8.11"/>
  <rect x="47.89" y="56.66" width="4.98" height="8.11"/>
  <rect x="60.28" y="56.56" width="4.98" height="8.11"/>
  <rect x="66.6" y="56.56" width="4.98" height="8.11"/>
  <rect x="72.66" y="56.5" width="4.98" height="8.11"/>
  <rect x="79.04" y="56.37" width="4.98" height="8.11"/>
  <rect x="85.36" y="56.37" width="4.98" height="8.11"/>
  <rect x="91.43" y="56.31" width="4.98" height="8.11"/>
  <rect x="97.55" y="57.24" width="4.98" height="6.95"/>
  <rect x="103.87" y="57.24" width="4.98" height="6.98"/>
  <rect x="109.94" y="56.37" width="4.98" height="8.11"/>
  <rect x="116" y="56.53" width="4.98" height="8.11"/>
  <rect x="23.28" y="56.43" width="4.98" height="8.11"/>
  <rect x="17.28" y="56.43" width="4.98" height="8.11"/>
  <rect x="11.07" y="56.53" width="4.98" height="8.11"/>
  <rect x="4.81" y="56.47" width="4.98" height="8.11"/>
  <path class="st1" d="M8.16,52.02h-3.71v-20.13h3.71v3.28h2.86v-3.28h6.99v3.71h-6.57v3.28h-3.28v13.14Z"/>
  <path class="st1" d="M35.8,52.02h-10.28v-3.28h-3.28v-13.56h3.28v-3.28h10.28v3.28h3.28v3.71h-3.71v-3.28h-9.42v12.71h9.42v-3.28h3.71v3.71h-3.28v3.28Z"/>
  <polygon class="st2" points="43.3 37.24 47 37.24 47 47.25 51.76 52.02 54.38 52.02 54.38 49.4 50.69 45.7 50.69 37.24 54.38 37.24 54.38 33.56 50.69 33.56 50.69 26.17 47 26.17 47 33.56 43.3 33.56 43.3 37.24 43.3 37.24"/>
  <path class="st2" d="M58.62,38.32v8.94l4.76,4.77h8.94l4.76-4.77v-8.94l-4.76-4.76h-8.94l-4.76,4.76h0ZM64.93,37.24h5.84l2.62,2.62v5.84l-2.62,2.62h-5.84l-2.62-2.62v-5.84l2.62-2.62h0Z"/>
  <path class="st1" d="M98.85,24.52c.54,0,.97.16,1.3.49.33.33.49.76.49,1.3v15.97c0,1.82-.43,3.47-1.28,4.96-.85,1.48-2.01,2.65-3.47,3.5-1.46.85-3.09,1.28-4.89,1.28s-3.44-.43-4.92-1.28c-1.48-.85-2.64-2.02-3.49-3.5-.84-1.48-1.26-3.13-1.26-4.96s.39-3.47,1.17-4.96c.78-1.48,1.86-2.64,3.22-3.49,1.37-.84,2.89-1.26,4.57-1.26,1.35,0,2.62.28,3.78.84,1.17.56,2.16,1.34,2.98,2.35v-9.46c0-.54.17-.97.51-1.3.34-.33.76-.49,1.28-.49h0ZM91,48.87c1.17,0,2.22-.29,3.17-.86.95-.57,1.69-1.36,2.22-2.37.54-1,.8-2.12.8-3.36s-.27-2.35-.8-3.35c-.54-.99-1.28-1.77-2.22-2.35-.95-.57-2-.86-3.17-.86s-2.22.28-3.17.86c-.94.57-1.69,1.35-2.24,2.35-.55.99-.82,2.11-.82,3.35s.27,2.36.82,3.36c.55,1,1.3,1.79,2.24,2.37.95.57,2,.86,3.17.86h0Z"/>
  <path class="st1" d="M114.51,52.02c-1.85,0-3.5-.42-4.97-1.26-1.47-.84-2.62-2-3.45-3.48-.83-1.48-1.25-3.14-1.25-4.96s.4-3.54,1.21-5.03c.81-1.48,1.93-2.64,3.38-3.47,1.45-.83,3.08-1.24,4.9-1.24,2.76,0,5.04,1.05,6.87,3.15.23.26.35.56.35.91,0,.51-.26.95-.77,1.3-.23.16-.5.25-.81.25-.54,0-.99-.21-1.37-.63-.58-.63-1.22-1.09-1.91-1.38-.69-.29-1.48-.44-2.36-.44-1.8,0-3.26.6-4.38,1.8-1.12,1.2-1.68,2.8-1.68,4.78,0,1.26.26,2.39.79,3.38.53.99,1.26,1.77,2.21,2.33.95.56,2.03.84,3.24.84,1.59,0,2.87-.41,3.85-1.23.44-.33.87-.49,1.29-.49.33,0,.63.11.91.31.44.38.67.8.67,1.26,0,.35-.14.66-.42.94-1.68,1.56-3.78,2.35-6.3,2.35h0Z"/>
  <path class="st1" d="M10.1,56.25v8.83h-5.69v-8.83h5.69ZM5.24,63.47h.8v-2.41h2.41v-.8h-2.41v-1.61h3.22v-.8h-4.02v5.63Z"/>
  <path class="st1" d="M16.29,56.25v8.83h-5.69v-8.83h5.69ZM11.44,63.47h.8v-2.41h.8v.8h.8v.8h.8v.8h.81v-.8h-.81v-.8h-.8v-.8h.8v-.8h-2.41v-1.61h2.41v1.61h.81v-1.61h-.81v-.8h-3.21v5.63Z"/>
  <path class="st1" d="M22.48,56.25v8.83h-5.69v-8.83h5.69ZM17.63,63.47h4.02v-5.63h-4.02v5.63ZM20.84,58.65v4.02h-2.41v-4.02h2.41Z"/>
  <path class="st1" d="M28.68,56.25v8.83h-5.69v-8.83h5.69ZM23.83,63.47h.8v-4.01h.8v1.6h.8v-1.6h-.8v-.81h-.8v-.8h-.8v5.63ZM26.23,59.46h.8v4.01h.81v-5.63h-.81v.8h-.8v.81Z"/>
  <path class="st1" d="M41.07,56.25v8.83h-5.69v-8.83h5.69ZM36.22,63.47h.8v-2.41h.8v.8h.8v.8h.8v.8h.81v-.8h-.81v-.8h-.8v-.8h.8v-.8h-2.41v-1.61h2.41v1.61h.81v-1.61h-.81v-.8h-3.21v5.63Z"/>
  <path class="st1" d="M47.26,56.25v8.83h-5.69v-8.83h5.69ZM44.02,58.65h.8v.81h.8v1.6h-2.41v-1.6h-.8v4.01h.8v-1.61h2.41v1.61h.81v-4.01h-.81v-.81h-.8v-.8h-.8v.8ZM43.21,59.46h.8v-.81h-.8v.81Z"/>
  <path class="st1" d="M53.46,56.25v8.83h-5.69v-8.83h5.69ZM48.61,63.47h.8v-.8h.8v-.8h-.8v-4.02h-.8v5.63ZM51.81,61.87h-.8v-1.6h-.8v1.6h.8v.8h.8v.8h.81v-5.63h-.81v4.02Z"/>
  <path class="st1" d="M65.85,56.25v8.83h-5.69v-8.83h5.69ZM60.99,62.67h.8v.8h2.41v-.8h-2.41v-4.02h-.8v4.02ZM61.8,58.65h2.41v.81h.81v-.81h-.81v-.8h-2.41v.8ZM64.2,62.67h.81v-.8h-.81v.8Z"/>
  <path class="st1" d="M72.04,56.25v8.83h-5.69v-8.83h5.69ZM67.19,63.47h4.02v-5.63h-4.02v5.63ZM70.4,58.65v4.02h-2.41v-4.02h2.41Z"/>
  <path class="st1" d="M78.23,56.25v8.83h-5.69v-8.83h5.69ZM73.38,63.47h4.02v-.8h-3.22v-4.82h-.8v5.63Z"/>
  <path class="st1" d="M84.43,56.25v8.83h-5.69v-8.83h5.69ZM79.58,63.47h4.02v-.8h-3.22v-4.82h-.8v5.63Z"/>
  <path class="st1" d="M90.62,56.25v8.83h-5.69v-8.83h5.69ZM85.77,63.47h4.02v-.8h-3.22v-1.6h2.41v-.8h-2.41v-1.61h3.22v-.8h-4.02v5.63Z"/>
  <path class="st1" d="M96.82,56.25v8.83h-5.69v-8.83h5.69ZM91.97,62.67h.8v.8h2.41v-.8h-2.41v-4.02h-.8v4.02ZM92.77,58.65h2.41v.81h.81v-.81h-.81v-.8h-2.41v.8ZM95.18,62.67h.81v-.8h-.81v.8Z"/>
  <path class="st1" d="M103.01,56.25v8.83h-5.69v-8.83h5.69ZM98.16,58.65h1.6v4.82h.8v-4.82h1.61v-.8h-4.02v.8Z"/>
  <path class="st1" d="M109.21,56.25v8.83h-5.69v-8.83h5.69ZM105.16,58.65h.8v4.02h-.8v.8h2.41v-.8h-.8v-4.02h.8v-.8h-2.41v.8Z"/>
  <path class="st1" d="M115.4,56.25v8.83h-5.69v-8.83h5.69ZM110.55,63.47h4.02v-5.63h-4.02v5.63ZM113.76,58.65v4.02h-2.41v-4.02h2.41Z"/>
  <path class="st1" d="M121.6,56.25v8.83h-5.69v-8.83h5.69ZM116.74,63.47h.8v-4.01h.8v.8h.8v.8h.8v2.41h.81v-5.63h-.81v2.42h-.8v-.8h-.8v-.81h-.8v-.8h-.8v5.63Z"/>
  <path class="st1" d="M9.28,69.4v.6h-1.76v5.38h-.68v-5.38h-1.69v-.6h4.13Z"/>
  <path class="st1" d="M14.59,74.32c-.39.79-1.08,1.15-1.72,1.15-.91,0-2.15-.74-2.15-3.08s1.26-3.04,2.15-3.04c.65,0,1.33.36,1.72,1.12.33.64.37,1.38.37,1.94,0,.52-.04,1.27-.36,1.91ZM11.38,72.3c0,1.9.82,2.52,1.49,2.52.4,0,.86-.23,1.14-.81.24-.51.27-1.12.27-1.51,0-.5-.03-1.08-.23-1.58-.28-.69-.79-.94-1.21-.94-.63,0-1.46.55-1.46,2.32Z"/>
  <path class="st1" d="M23.51,69.41c.53,0,.96.04,1.39.32.77.5,1.11,1.5,1.11,2.65,0,1.31-.47,2.32-1.32,2.76-.42.22-.82.24-1.29.24h-1.28v-5.98h1.4ZM22.75,74.86h.61c.38,0,.74-.02,1.12-.27.48-.32.85-.98.85-2.11,0-.86-.19-1.71-.74-2.17-.37-.31-.75-.33-1.12-.33h-.72v4.88Z"/>
  <path class="st1" d="M30.98,69.41v.56h-1.18v4.86h1.24v.55h-3.08v-.56h1.17v-4.85h-1.11v-.56h2.96Z"/>
  <path class="st1" d="M37.15,70.35l-.47.48c-.08-.05-.1-.12-.13-.19-.18-.4-.61-.71-1.14-.71-.5,0-1.03.28-1.34.86-.23.44-.3.97-.3,1.53,0,.63.07,1.47.57,2.04.33.37.75.52,1.14.52.36,0,.74-.13,1.07-.36v-1.42h-1.08v-.58h1.7v2.33c-.56.41-1.2.62-1.75.62-1.04,0-2.31-.74-2.31-3,0-2.62,1.52-3.11,2.31-3.11.74,0,1.39.38,1.73,1Z"/>
  <path class="st1" d="M42.15,69.41v.56h-1.18v4.86h1.24v.55h-3.08v-.56h1.17v-4.85h-1.11v-.56h2.96Z"/>
  <path class="st1" d="M48.36,69.4v.6h-1.76v5.38h-.68v-5.38h-1.69v-.6h4.13Z"/>
  <path class="st1" d="M51.76,69.31h.07l2.31,6.07h-.69l-.66-1.74h-1.89l-.58,1.75h-.66l2.11-6.08ZM51.79,70.84l-.77,2.27h1.61l-.84-2.27Z"/>
  <path class="st1" d="M56.51,69.41c.01.07-.02.12-.03.15-.03.05-.05.08-.05.17v5.07h2.88v.58h-3.57v-5.98h.78Z"/>
  <path class="st1" d="M70.75,70.54l-.64.31s-.04-.08-.04-.09c0-.02,0-.05,0-.07,0-.04-.01-.07-.03-.1-.24-.42-.68-.69-1.14-.69-.84,0-1.6.89-1.6,2.47s.77,2.53,1.65,2.53c.47,0,.94-.27,1.22-.73l.49.32c-.37.61-1.04.98-1.75.98-.98,0-2.26-.74-2.26-3.05s1.34-3.07,2.27-3.07c.79,0,1.51.46,1.83,1.18Z"/>
  <path class="st1" d="M76,74.32c-.39.79-1.08,1.15-1.72,1.15-.91,0-2.15-.74-2.15-3.08s1.26-3.04,2.15-3.04c.65,0,1.33.36,1.72,1.12.33.64.37,1.38.37,1.94,0,.52-.04,1.27-.36,1.91ZM72.78,72.3c0,1.9.82,2.52,1.49,2.52.4,0,.86-.23,1.14-.81.24-.51.27-1.12.27-1.51,0-.5-.03-1.08-.23-1.58-.28-.69-.79-.94-1.21-.94-.63,0-1.46.55-1.46,2.32Z"/>
  <path class="st1" d="M78.84,69.41c.01.07-.02.12-.03.15-.03.05-.05.08-.05.17v5.07h2.88v.58h-3.57v-5.98h.78Z"/>
  <path class="st1" d="M84.42,69.41c.01.07-.02.12-.03.15-.03.05-.05.08-.05.17v5.07h2.88v.58h-3.57v-5.98h.78Z"/>
  <path class="st1" d="M92.81,69.4v.6h-3.03v1.96h2.5v.61h-2.5v2.21h3v.6h-3.64v-5.98h3.66Z"/>
  <path class="st1" d="M98.66,70.54l-.64.31s-.04-.08-.04-.09c0-.02,0-.05,0-.07,0-.04-.01-.07-.03-.1-.24-.42-.68-.69-1.14-.69-.84,0-1.6.89-1.6,2.47s.77,2.53,1.65,2.53c.47,0,.94-.27,1.22-.73l.49.32c-.37.61-1.04.98-1.75.98-.98,0-2.26-.74-2.26-3.05s1.34-3.07,2.27-3.07c.79,0,1.51.46,1.83,1.18Z"/>
  <path class="st1" d="M104.18,69.4v.6h-1.76v5.38h-.68v-5.38h-1.69v-.6h4.13Z"/>
  <path class="st1" d="M109.14,69.41v.56h-1.18v4.86h1.24v.55h-3.08v-.56h1.17v-4.85h-1.11v-.56h2.96Z"/>
  <path class="st1" d="M115.08,74.32c-.39.79-1.08,1.15-1.72,1.15-.91,0-2.15-.74-2.15-3.08s1.26-3.04,2.15-3.04c.65,0,1.33.36,1.72,1.12.33.64.37,1.38.37,1.94,0,.52-.04,1.27-.36,1.91ZM111.86,72.3c0,1.9.82,2.52,1.49,2.52.4,0,.86-.23,1.14-.81.24-.51.27-1.12.27-1.51,0-.5-.03-1.08-.23-1.58-.28-.69-.79-.94-1.21-.94-.63,0-1.46.55-1.46,2.32Z"/>
  <path class="st1" d="M116.98,69.41h.65l2.5,4.42v-4.43h.71c0,.06-.02.1-.03.12-.02.04-.04.07-.04.13v5.73h-.53l-2.63-4.7v4.69h-.64v-5.97Z"/>
</svg>